<?xml version="1.0" encoding="utf-8"?>
<!-- Generator: Adobe Illustrator 22.1.0, SVG Export Plug-In . SVG Version: 6.00 Build 0)  -->
<svg version="1.1" id="Layer_1" xmlns="http://www.w3.org/2000/svg" xmlns:xlink="http://www.w3.org/1999/xlink" x="0px" y="0px"
	 viewBox="0 0 100 100" style="enable-background:new 0 0 100 100;" xml:space="preserve">
<style type="text/css">
	.st0{fill:#2A367E;}
	.st1{fill:#C4161C;}
	.st2{fill:#ED1C24;}
	.st3{fill:#FFFFFF;}
</style>
<path d="M13.3,62.8c-0.1-0.2-0.3-0.4-0.5-0.6c-0.2-0.2-0.4-0.3-0.7-0.3s-0.5,0-0.8,0c-0.4,0.1-0.7,0.2-1,0.4
	c-0.4,0.2-0.7,0.3-1.1,0.4c-0.6,0.2-1.2,0.2-1.8,0c-0.6-0.1-1.2-0.5-1.8-1c0.5,0.2,1.1,0.4,1.7,0.5c0.5,0,1,0,1.4-0.1
	c0.2-0.1,0.7-0.2,1.3-0.5c0.3-0.1,0.7-0.2,0.9-0.3c0.3-0.1,0.7-0.1,1,0c0.4,0.1,0.7,0.3,1,0.5l0.1-0.2c-0.3-0.2-0.6-0.5-0.7-0.9
	c-0.1-0.3-0.1-0.6,0-0.9c0-0.3,0-0.6,0-0.8c-0.1-0.4-0.3-0.7-0.6-0.8c-0.3-0.2-0.7-0.2-1-0.1c-0.1,0-0.3,0.1-0.4,0.2l0.1,0.2
	c0.1,0,0.1-0.1,0.2-0.1c0.2,0,0.3,0,0.5,0.1c0.1,0.1,0.3,0.2,0.3,0.4c0,0.1,0,0.3,0,0.4c0,0.3,0,0.6,0.1,0.9
	c0.1,0.3,0.2,0.6,0.4,0.8c-0.3-0.2-0.7-0.3-1.1-0.4c-0.4,0-0.8,0-1.1,0.1c-0.1,0-0.3,0.1-0.5,0.2c0-0.1,0-0.1,0-0.2
	c0-0.1,0-0.1,0-0.2C9.1,60.3,9,60,8.8,59.9c-0.1-0.1-0.3-0.2-0.5-0.3l-0.1,0.2c0.2,0.1,0.3,0.3,0.4,0.5c0.1,0.2,0,0.5-0.1,0.7
	S8.2,61.4,8,61.4c0,0-0.1,0-0.2,0c0-0.1,0-0.2,0-0.3s0-0.2,0-0.3s-0.1-0.2-0.2-0.4c-0.1-0.1-0.2-0.2-0.3-0.3l-0.1,0.2
	c0.1,0.1,0.1,0.2,0.2,0.3c0,0.2,0,0.4-0.1,0.6c-0.1,0.2-0.3,0.3-0.5,0.4c-0.3,0.1-0.6,0-0.9-0.1s-0.8-0.4-1.5-0.9l-0.1,0.1
	c0.4,0.4,0.8,0.9,1.1,1.4c0.2,0.4,0.4,0.8,0.5,1.2s0.2,0.9,0.2,1.3S6,65.5,5.8,65.9l1.5,1l0.1-0.2l-0.6-0.4C6.9,66,7,65.6,7,65.1
	c0-0.4,0-0.8-0.1-1.1c-0.2-0.5-0.4-1-0.7-1.4c1,0.6,1.7,1,2.1,1.1c0.5,0.1,1,0.1,1.4,0c0.5-0.1,1-0.3,1.4-0.5
	c0.3-0.1,0.5-0.2,0.8-0.3s0.6-0.1,0.8,0.1c0.2,0.2,0.4,0.4,0.6,0.8l0.2-0.2C13.5,63.3,13.4,63.1,13.3,62.8L13.3,62.8L13.3,62.8z
	 M13.3,70.3l-0.1-0.1C13.1,70,13,69.7,13,69.5c0-0.3-0.1-0.6,0-0.9c-0.4-0.1-0.8-0.4-0.9-0.8c0-0.1-0.1-0.2-0.1-0.3h-0.2l-1,1.2
	c-0.5-0.2-1.1-0.2-1.6-0.2c-0.3,0-0.6,0.1-0.9,0.2c-0.4,0.2-0.8,0.7-0.9,1.5L9.2,71c-0.2,0.1-0.4,0.3-0.6,0.5
	c-0.1,0.2-0.2,0.5-0.3,0.8l1.4,0.6l0.1-0.2c-0.2-0.1-0.2-0.1-0.3-0.1l-0.1-0.1c0-0.1,0-0.2,0-0.2c0.1-0.1,0.3-0.2,0.6-0.4l2.1-1
	c0.2-0.1,0.4-0.2,0.6-0.2c0.3,0,0.5,0,0.8,0v-0.2C13.5,70.3,13.5,70.3,13.3,70.3z M10.9,70.2v-1.3l1-1.2l0.3,1.9L10.9,70.2z
	 M9.5,70.8l-1-0.4c0.1-0.6,0.4-1.1,1-1.3c0.4-0.2,0.8-0.2,1.2-0.2v1.4L9.5,70.8z M16.9,71.8c-0.2-0.1-0.5-0.2-0.7-0.3
	c0-0.2,0-0.4,0-0.6s0-0.3-0.1-0.5H16c0,0.2,0,0.4-0.1,0.6s-0.3,0.4-0.7,0.6L11,74.5l-0.6-0.1l-0.1,1.2l1.2,0.4l0.1-0.5l2.5-1.7
	l1.1,0.4c0,0.2,0,0.4-0.1,0.6c-0.1,0.1-0.2,0.3-0.4,0.4l-1.9,1.3c-0.7,0.5-1.2,0.7-1.3,0.8c-0.3,0.1-0.6,0.1-0.9,0
	c-0.3-0.1-0.8-0.4-1.4-0.8L9,76.4c0.6,0.5,1.3,0.9,2.1,1.2c0.4,0.2,0.9,0.2,1.3,0.2c0.2,0,0.6-0.2,0.9-0.4l2.1-1.4
	c0.4-0.3,0.7-0.5,0.8-0.7c0.1-0.2,0.2-0.5,0.2-1l-2-0.7l1.5-1c0.3-0.2,0.6-0.4,0.8-0.4c0.3,0,0.5,0,0.7,0.1l0.1-0.1
	C17.3,72.1,17.1,71.9,16.9,71.8L16.9,71.8z M19,77.6c-0.6-0.1-1.3-0.3-1.8-0.7l-2.3,2c-0.2,0.1-0.3,0.3-0.5,0.4c-0.1,0-0.3,0-0.4,0
	v0.1c0.2,0.2,0.3,0.5,0.5,0.8c0.2,0.5,0.3,0.9,0.4,1.4c0.2,0,0.4,0.1,0.6,0.1c0.4,0.2,0.8,0.3,1.2,0.5l3.1-2.7
	C19.3,79,19.1,78.3,19,77.6L19,77.6L19,77.6z M17.9,77.8c0.1,0.1,0.2,0.3,0.2,0.4c0.1,0.2,0.2,0.5,0.3,1l-2.6,2.3L15.3,80L17.9,77.8
	z M21.9,82.1c0.1-0.1,0.2-0.3,0.2-0.4c0-0.3,0-0.6-0.1-0.9h-1.5V81c0.2,0,0.3,0,0.4,0.1s0.1,0.2,0.1,0.2c0,0.1-0.1,0.3-0.3,0.5
	l-1.5,1.7c-0.1,0.2-0.3,0.3-0.5,0.4c-0.1,0-0.3,0.1-0.5,0V84c0.1,0.2,0.2,0.4,0.3,0.6c0.1,0.3,0.1,0.6,0.2,0.9l1.8,0.1v-0.2h-0.7
	l-0.2-0.7l2.1-2.4h0.7l-0.1,1.1h1.1v-1.3H21.9z M25.6,84.4c-0.2,0-0.5-0.1-0.9-0.2l-1.8,2.5c-0.1,0.2-0.3,0.4-0.4,0.5
	s-0.2,0.1-0.4,0.1L22,87.5c0.2,0.2,0.5,0.5,0.7,0.8s0.3,0.6,0.5,0.8h2.1v-0.2h-1l-0.8-1.2l0.6-0.8h3l-0.2-2.3
	C26.2,84.5,25.7,84.4,25.6,84.4L25.6,84.4L25.6,84.4z M26.1,86.6h-1.8l1.4-2h0.1L26.1,86.6z M26.9,91c0,0.1,0,0.2-0.1,0.4
	c-0.1,0.1-0.2,0.2-0.3,0.3c-0.2,0.1-0.4,0.1-0.6,0.2v0.2c0.9,0,1.6-0.2,2.2-0.9l-0.3-1l-1.1,0.3C26.8,90.6,26.9,90.8,26.9,91
	L26.9,91z M39.2,89.1l-0.7,0.3c0.1-0.3,0.1-0.6,0-0.9s-0.2-0.5-0.4-0.7s-0.5-0.4-0.8-0.4c-0.3-0.1-0.6-0.1-0.8,0
	c-0.3,0-0.6,0.2-0.9,0.3l0.1,0.2c0.3-0.1,0.6-0.1,0.9,0c0.2,0,0.4,0.2,0.6,0.3c0.1,0.1,0.2,0.3,0.3,0.5c0,0.3,0,0.5-0.1,0.8
	l-0.1,0.4l-1.6,0.5c-0.2,0.1-0.5,0.1-0.8,0.2l-0.1,0.2c0.4,0.2,0.8,0.5,1,0.9c0.2,0.3,0.4,0.6,0.4,1s0,0.8-0.1,1.2
	c-0.5,0-0.9,0-1.4,0.1c-0.4,0.1-0.9,0.4-1.5,0.8l0.1,0.3c0.4-0.2,0.8-0.3,1.2-0.3c0.5,0,0.9,0,1.4,0.1L35.3,97l2,0.5l0.6-2.1
	c0.3,0.1,0.6,0.2,0.9,0.4c0.4,0.2,0.7,0.4,1,0.7l2-1l0.9-3.3c0.1-0.4,0.2-0.7,0.2-1.1c0-0.3-0.2-0.7-0.3-0.9
	c-0.2-0.4-0.6-0.9-1.2-1.5l-1.7,0.6l0.3-0.9l-0.2-0.1L39.2,89.1z M39.4,89.3l0.8-0.3c0.4,0.3,0.7,0.7,1,1.1c0.2,0.2,0.3,0.5,0.4,0.8
	c0,0.3,0,0.5-0.1,0.8c-0.3,0.1-0.5,0.2-0.8,0.2c-0.2,0-0.4,0-0.7-0.1c-0.2,0-0.4-0.1-0.6-0.3c-0.2-0.2-0.4-0.3-0.6-0.6L39.4,89.3z
	 M37,97.1l-0.6-0.2l2-7.2l0.7-0.2L37,97.1z M36.7,91.6c-0.1-0.2-0.2-0.4-0.4-0.6s-0.3-0.4-0.5-0.5l1.3-0.4L36.7,91.6z M38.9,91.3
	c0.2,0.2,0.4,0.4,0.6,0.5c0.2,0.1,0.4,0.2,0.6,0.2c0.2,0.1,0.4,0.1,0.7,0.1s0.6-0.1,0.8-0.1l-0.4,1.6c-0.2-0.2-0.4-0.4-0.6-0.5
	c-0.2-0.1-0.4-0.2-0.6-0.2c-0.2,0-0.4-0.1-0.6-0.1c-0.3,0-0.5,0-0.8,0.1L38.9,91.3z M38.4,93.2c0.3-0.1,0.5-0.1,0.8-0.2
	c0.2,0,0.4,0,0.7,0.1c0.2,0,0.4,0.1,0.6,0.3c0.2,0.2,0.4,0.3,0.6,0.6l-0.5,1.8c-0.4-0.3-0.8-0.7-1.3-0.9c-0.4-0.2-0.8-0.4-1.2-0.5
	L38.4,93.2z M48.2,92.1c0,0-0.1,0-0.2,0c-0.2,0-0.5-0.1-0.7-0.2c-0.3-0.1-0.6-0.3-0.8-0.4c-0.3,0.3-0.7,0.4-1.2,0.4
	c-0.1,0-0.2,0-0.3,0V92l0.6,1.4c-0.4,0.4-0.7,0.8-1,1.3c-0.2,0.3-0.2,0.6-0.3,0.9c0,0.5,0.2,1,0.8,1.6l1.7-1.2c0,0.2,0,0.5,0.1,0.7
	s0.3,0.5,0.5,0.6l1.2-0.9l-0.1-0.2c-0.1,0.1-0.2,0.2-0.2,0.2h-0.1c-0.1,0-0.2-0.1-0.2-0.2s0-0.3,0-0.7l0.2-2.3c0-0.2,0-0.4,0.1-0.6
	s0.3-0.5,0.4-0.7l-0.2-0.1C48.4,92,48.3,92.1,48.2,92.1L48.2,92.1z M46.9,94.2l-1.2-0.7l-0.6-1.4l1.8,0.7V94.2z M46.8,95.8l-0.9,0.6
	c-0.5-0.4-0.7-0.9-0.7-1.5c0-0.4,0.2-0.8,0.4-1.1l1.3,0.7L46.8,95.8z M51.6,89.8c-0.2,0.1-0.5,0.3-0.6,0.5c-0.1-0.1-0.3-0.2-0.4-0.3
	c-0.2-0.1-0.3-0.1-0.5-0.2L49.9,90c0.3,0.1,0.5,0.3,0.6,0.7c0,0.2,0.1,0.4,0.1,0.6l0.2,3.9c0,0.5,0,0.8,0,0.9
	c-0.1,0.2-0.2,0.3-0.3,0.4v0.1c0.3,0.1,0.5,0.2,0.8,0.3c0.2,0.1,0.5,0.3,0.7,0.5l1.5-1.3c0,0.2,0.1,0.5,0.2,0.7
	c0.1,0.2,0.2,0.3,0.4,0.5l1.2-1l-0.1-0.2c-0.2,0.2-0.3,0.2-0.3,0.2c-0.1,0-0.1,0-0.1-0.1s-0.1-0.3-0.2-0.8c-0.1-0.4-0.2-0.7-0.4-1
	c-0.2-0.2-0.4-0.5-0.7-0.6l1.2-1.2l-1.2-1.1L52,93.2l-0.1-1.9c0-0.4,0-0.8,0.1-1s0.3-0.5,0.5-0.6v-0.1C52,89.6,51.8,89.7,51.6,89.8
	L51.6,89.8z M53.6,93.3l-1.7,1.6l-0.1-1.4l0.9-1L53.6,93.3z M52.5,94.6c0.4,0.2,0.7,0.6,0.9,1.2l-0.8,0.7L52,96.2l-0.1-0.9
	L52.5,94.6z M56.9,90.4h0.2l0.5-1.3l-0.7,0.1V90.4z M56.1,92l0.5,0.3l0.5,3c0.1,0.4,0.2,0.8,0.3,0.9c0.1,0.2,0.3,0.3,0.7,0.5l1-1.1
	l-0.2-0.1c-0.1,0.1-0.2,0.2-0.2,0.3h-0.1c-0.1,0-0.1,0-0.2-0.1c-0.1-0.1-0.1-0.3-0.2-0.6l-0.5-2.9l0.4-0.5L56.8,91L56.1,92z
	 M63.2,90.2c0.1-0.2,0.2-0.4,0.2-0.7c0-0.2,0-0.3,0-0.5c0-0.1-0.1-0.2-0.2-0.3c-0.1-0.1-0.2-0.1-0.3,0c-0.1,0-0.1,0.1-0.2,0.2
	c0,0.1,0,0.2,0,0.3c0,0.1,0.2,0.2,0.3,0.3c0.1,0,0.1,0.1,0.2,0.2c0,0.1,0,0.2-0.1,0.3c-0.1,0.1-0.2,0.2-0.4,0.3
	c-0.2,0-0.4,0.1-0.6,0.1c-0.4,0-0.8,0-1.2-0.1c-0.1,0.3-0.2,0.5-0.4,0.7s-0.5,0.4-0.7,0.6l0.6,2l1.3,0.3L61.3,95L61,95.7
	c-0.1,0.1-0.1,0.2-0.1,0.3c0,0-0.1,0.1-0.1,0.2s0.1,0.1,0.2,0.1c0.1,0,0.1-0.1,0.2-0.2c0.2-0.3,0.5-0.5,0.8-0.6
	c0.2-0.1,0.4-0.1,0.6-0.1c0.3,0,0.5,0,0.8,0.1c0.2-0.3,0.4-0.6,0.6-0.8c0.2-0.2,0.5-0.3,0.7-0.4L64,92l-1.4-0.3L63.2,90.2z
	 M60.7,91.1c0.4,0.2,0.9,0.2,1.4,0.1c0.2-0.1,0.4-0.2,0.6-0.3L62,92.7l-0.8-0.2L60.7,91.1z M63.1,93l0.4,1.5c-0.4-0.1-0.9-0.1-1.4,0
	c-0.1,0-0.2,0.1-0.4,0.1c-0.1,0.1-0.3,0.2-0.4,0.2l0.8-2.1L63.1,93z M64.6,89.8l0.5-0.2l1.2,2.9c0.1,0.2,0.1,0.4,0.1,0.6
	c0,0.1-0.1,0.3-0.1,0.4v0.1c0.6-0.1,1.1,0,1.6,0.2l0.7-1.3l-0.2-0.1l-0.2,0.4l-0.7-0.2l-1.4-3.4l1-0.4l-0.2-0.6l-1,0.4l-0.5-1.4
	l-0.1,0.1l-0.7,2.3L64.6,89.8z M71.1,86.3L71.1,86.3c-0.3,0.2-0.6,0.3-0.8,0.3c-0.3,0.1-0.6,0.1-0.9,0.1c-0.1,0.4-0.4,0.8-0.7,1
	c-0.1,0-0.2,0.1-0.3,0.1V88l1.2,0.9c-0.1,0.5-0.2,1.1-0.2,1.6c0,0.3,0.1,0.6,0.3,0.9c0.2,0.4,0.8,0.7,1.5,0.9l0.8-1.9
	c0.1,0.2,0.3,0.4,0.5,0.6c0.2,0.1,0.5,0.2,0.8,0.2l0.5-1.4l-0.2-0.1c-0.1,0.2-0.1,0.2-0.1,0.3c0,0,0,0.1-0.1,0.1s-0.2,0-0.2,0
	c-0.1-0.1-0.2-0.3-0.4-0.6l-1.1-2c-0.1-0.2-0.2-0.4-0.2-0.6c0-0.3,0-0.5,0-0.8h-0.2C71.1,86.1,71.1,86.2,71.1,86.3z M71.1,88.7
	l-1.3,0.1l-1.3-0.9l1.9-0.4L71.1,88.7z M71.9,90.1l-0.4,1c-0.7-0.1-1.1-0.4-1.4-0.9c-0.2-0.4-0.3-0.8-0.3-1.2l1.4-0.1L71.9,90.1z
	 M74.6,84.9l-0.1-0.2c-0.1-0.2-0.3-0.3-0.4-0.4s-0.4-0.1-0.8-0.1L73,85.7h0.2c0-0.2,0.1-0.3,0.1-0.4c0.1,0,0.2,0,0.2,0
	c0.1,0.1,0.3,0.2,0.6,0.6l1.7,2.2l-0.1,0.6h1.2l0.3-1.2l-0.6-0.1L74.8,85l0.2-1l0.7,0.1l1.8,2.4c0.2,0.3,0.4,0.5,0.6,0.6
	s0.4,0.1,0.8,0.1l0.4-1.5h-0.2C79,86,79,86.1,78.9,86.1s-0.1,0-0.2,0c-0.2-0.1-0.3-0.2-0.4-0.4l-1.6-2.1c-0.1-0.2-0.2-0.4-0.3-0.6
	c0-0.2,0-0.5,0-0.7h-0.2L76.1,83L75,82.8L74.6,84.9z M80.6,78.8l0.1-2.8c0.5-0.1,1,0,1.4,0.4c0.3,0.2,0.5,0.5,0.6,0.8
	c0.2,0.3,0.3,0.7,0.3,1c0,0.4,0,0.9,0,1.3c0,0.5,0,0.9,0,1.4c0,0.4,0.2,0.8,0.3,1.2c0.1,0.2,0.2,0.4,0.4,0.6c0,0,0,0,0.1,0l0,0
	c0-0.1,0.1-0.2,0.1-0.2c0.2-0.6,0.5-1.1,0.9-1.6c0.2-0.2,0.4-0.5,0.7-0.6c0.3-0.2,0.7-0.5,1-0.7l-0.2-1.4l-0.8,0.5
	c-0.2,0.1-0.4,0.3-0.5,0.4c-0.2,0.2-0.4,0.4-0.6,0.6s-0.4,0.5-0.5,0.8c-0.2,0.4-0.3,0.8-0.4,1.2c-0.1-0.3-0.1-0.6-0.1-0.8
	c0-0.4,0.1-0.8,0.2-1.3c0.2-1.3,0.3-2.2,0.2-2.7c-0.1-0.5-0.4-1-0.8-1.3c-0.1-0.1-0.2-0.2-0.4-0.3l-2.9,1l-0.1,2.8L80.6,78.8z
	 M83.6,73.6c0.4,0.7,0.9,1.3,1.6,1.8c0.5,0.3,1,0.5,1.5,0.5c0.5,0.1,1.1,0,1.6-0.2s1-0.5,1.3-0.8c0-0.8-0.2-1.6-0.6-2.4
	c-0.4-0.7-0.9-1.3-1.6-1.7c-0.7-0.4-1.4-0.6-2.2-0.6c-0.8,0.1-1.6,0.4-2.2,0.9C83.1,72,83.2,72.9,83.6,73.6L83.6,73.6z M84.9,71.6
	c0.5-0.2,1-0.3,1.5-0.2c0.5,0.1,1,0.2,1.4,0.5c0.3,0.2,0.6,0.4,0.8,0.7c0.2,0.3,0.4,0.6,0.6,1c-0.3,0.4-0.7,0.7-1.2,0.9
	c-0.5,0.2-1.1,0.3-1.6,0.2c-0.6,0-1.1-0.2-1.6-0.5c-0.7-0.4-1.1-1-1.4-1.7C83.9,72.1,84.4,71.8,84.9,71.6z M86.7,68.3
	c0.5,0.7,1.1,1.2,1.8,1.5c0.5,0.2,1,0.3,1.6,0.3c0.5,0,1.1-0.1,1.5-0.4c0.5-0.2,0.9-0.6,1.2-1c-0.1-0.8-0.5-1.6-0.9-2.3
	c-0.5-0.7-1.1-1.2-1.8-1.4c-0.7-0.3-1.5-0.4-2.3-0.2c-0.8,0.2-1.5,0.6-2,1.3C85.9,66.8,86.2,67.6,86.7,68.3L86.7,68.3z M87.6,66.1
	c0.4-0.3,1-0.4,1.5-0.4s1,0.1,1.5,0.3c0.3,0.1,0.6,0.3,0.9,0.6c0.3,0.3,0.5,0.6,0.7,0.9c-0.3,0.4-0.6,0.8-1.1,1
	c-0.5,0.3-1,0.5-1.5,0.5c-0.6,0-1.1-0.1-1.6-0.3c-0.7-0.3-1.3-0.8-1.6-1.5C86.7,66.8,87.1,66.4,87.6,66.1z M89.7,62.5l-1.1-2.6
	c0.4-0.3,0.9-0.4,1.4-0.3c0.3,0.1,0.6,0.2,0.9,0.4s0.5,0.5,0.7,0.8c0.2,0.4,0.4,0.8,0.6,1.2s0.4,0.8,0.7,1.2
	c0.2,0.3,0.5,0.7,0.8,0.9c0.2,0.1,0.4,0.3,0.6,0.3h0.1l0,0c0-0.1,0-0.2,0-0.2c-0.1-0.6-0.1-1.2,0.1-1.8c0.1-0.3,0.2-0.6,0.3-0.9
	c0.2-0.4,0.4-0.7,0.6-1l-0.8-1.2L94.1,60c-0.1,0.2-0.2,0.4-0.3,0.6c-0.1,0.3-0.2,0.5-0.3,0.8c-0.1,0.3-0.1,0.6-0.1,1s0,0.8,0.1,1.2
	c-0.2-0.2-0.4-0.4-0.5-0.7c-0.2-0.4-0.3-0.8-0.4-1.2c-0.4-1.3-0.7-2.1-1-2.5s-0.8-0.7-1.4-0.8c-0.1,0-0.3-0.1-0.5-0.1l-2.2,2.2
	l1.1,2.6L89.7,62.5z M3.3,41.8l-1,1.1l1.3,1.5l0.2-0.2l-0.6-0.7l0.5-0.6l1.6,0.2c0.1,0.2,0.1,0.3,0.2,0.5c0,0.2,0,0.3,0,0.5
	c0,0.4-0.2,0.7-0.4,1l-3-0.4v0.2c0.1,0.1,0.2,0.3,0.3,0.4c0.1,0.2,0.1,0.5,0.1,0.7c0,0.3-0.2,0.7-0.3,1c-0.2,0.4-0.3,0.6-0.3,0.6
	c0,0.1-0.1,0.2-0.1,0.3c0,0.4,0.1,0.8,0.4,1.1s0.7,0.5,1.3,0.6c0.2,0,0.4,0,0.6,0v-0.2c-0.2,0-0.3,0-0.5,0c-0.3,0-0.5-0.1-0.7-0.4
	c-0.2-0.2-0.2-0.5-0.2-0.7c0-0.1,0-0.3,0.1-0.5c0-0.2,0.1-0.4,0.1-0.5c0-0.4,0-0.7,0-1c0.2,0.5,0.5,1,0.8,1.5c0.4,0.5,0.8,1,1.3,1.3
	s1,0.5,1.6,0.6c0.7,0.1,1.5,0,2.1-0.4c0.9-0.5,1.4-1.3,1.5-2.4c0.1-0.6,0-1.2-0.1-1.7c-0.2-0.5-0.5-1.1-1-1.8c0.4,0,0.8,0,1-0.1
	s0.4-0.3,0.6-0.6l-0.8-1.2H9.6c0.1,0.1,0.1,0.2,0.1,0.3S9.6,42,9.5,42.1c-0.2,0.1-0.5,0.1-1,0l-3.9-0.4c-0.3,0-0.5-0.1-0.8-0.2
	c-0.3-0.2-0.5-0.4-0.8-0.7L2.8,41L3.3,41.8z M9.4,45.8c0,0.2,0,0.3,0,0.5c0,0.3-0.1,0.5-0.2,0.8c-0.1,0.2-0.3,0.5-0.5,0.7
	c-0.2-0.4-0.5-0.8-0.8-1.2c-0.1-0.1-0.3-0.3-0.5-0.4c-0.2-0.1-0.4-0.1-0.6-0.1l-2.5-0.3c-0.6-0.1-0.9-0.1-1.1-0.2
	C3,45.4,2.8,45.3,2.6,45L9.4,45.8z M7.6,48.5c-0.5,0.1-0.9,0.2-1.4,0.1c-1-0.1-2-0.6-2.6-1.5c-0.3-0.5-0.6-1-0.8-1.5
	c0.3,0.4,0.7,0.7,1,1c0.1,0.1,0.3,0.2,0.4,0.2C4.5,46.9,4.8,47,5.1,47l1.6,0.2c0.6,0.1,1,0.1,1.2,0.2c0.3,0.1,0.5,0.3,0.7,0.6
	C8.3,48.2,7.9,48.4,7.6,48.5L7.6,48.5L7.6,48.5z M6.9,43.3c-0.2,0.3-0.3,0.6-0.4,0.9c0,0.4,0,0.7,0.1,1.1l-1.3-0.1
	c0.2-0.3,0.3-0.6,0.4-1c0-0.2,0-0.3,0-0.5s-0.1-0.4-0.2-0.6L6.9,43.3z M8.6,43.4c0.2,0.4,0.4,0.7,0.5,1.1c0.1,0.3,0.2,0.7,0.2,1
	L7,45.3c-0.1-0.2-0.1-0.4-0.2-0.6c0-0.2,0-0.3,0-0.5c0-0.3,0.2-0.7,0.4-0.9L8.6,43.4z M7.3,38.1L7.1,38c-0.1,0-0.3,0-0.5,0
	s-0.4,0.2-0.7,0.4l0.6,1.4l0.2-0.1c-0.1-0.2-0.1-0.3-0.1-0.4c0-0.1,0.1-0.1,0.2-0.1c0.2,0,0.4,0,0.8,0.1l2.6,0.8l0.2,0.5l1-0.7
	L11,38.8l-0.5,0.3l-2.9-0.9l-0.4-1.1l0.6-0.3l2.8,0.9c0.4,0.1,0.7,0.2,0.8,0.1c0.2,0,0.4-0.2,0.7-0.4L11.5,36l-0.2,0.1
	c0.1,0.2,0.1,0.4,0.1,0.4c0,0.1-0.1,0.1-0.2,0.1c-0.2,0-0.4,0-0.6,0l-2.5-0.8c-0.2-0.1-0.4-0.2-0.6-0.3c-0.2-0.2-0.3-0.4-0.4-0.6
	L7.2,35l0.3,0.7l-1,0.5L7.3,38.1z M7.3,32.4l0.1-0.2L6.6,31l-0.3,0.6L7.3,32.4z M8.2,34l0.5-0.2l2.8,1.2c0.4,0.2,0.7,0.3,0.9,0.3
	s0.5-0.1,0.8-0.3l-0.4-1.4h-0.2c0,0.1,0.1,0.2,0.1,0.4v0.1c0,0.1-0.1,0.1-0.2,0.1c-0.1,0-0.3,0-0.6-0.2l-2.7-1.2L9,32.2l-1.1,0.6
	L8.2,34z M10,29.7c-0.2,0-0.5,0-0.7,0.1c-0.2,0-0.3,0.1-0.5,0.1c-0.1,0-0.2,0-0.2-0.1c-0.2-0.1-0.4-0.4-0.4-0.9L8,29
	c0,0.6,0,0.9,0.2,1.2c0.2,0.4,0.5,0.7,0.9,0.7c0.2,0,0.3,0,0.5,0c0.1,0,0.3,0,0.4,0c0.1,0,0.2,0.1,0.3,0.1l2.1,1.2
	c0.2,0.1,0.4,0.2,0.5,0.4C13,32.7,13,32.8,13,33l0.1,0.1c0.2-0.3,0.4-0.6,0.7-0.9c0.3-0.3,0.7-0.5,1.1-0.6c-0.1-0.4-0.1-0.7-0.1-1.1
	c0-0.3,0-0.6,0.1-0.9L12,28c-0.2-0.1-0.5-0.2-0.8-0.2c-0.2,0-0.6,0.1-1,0.3l0.4,2.1C10.5,29.9,10.2,29.8,10,29.7L10,29.7L10,29.7z
	 M10.7,29c0.2-0.1,0.4-0.2,0.6-0.2c0.2,0,0.4,0.1,0.6,0.2l2.7,1.5l-1.3,0.9L11,30.1L10.7,29z M12.7,25.2c0,0.2-0.1,0.5-0.2,0.9
	l2.5,1.8c0.2,0.1,0.4,0.3,0.5,0.4s0.1,0.2,0.1,0.4l0.1,0.1c0.2-0.2,0.5-0.5,0.8-0.7s0.6-0.3,0.8-0.5v-2.1h-0.2v1L16,27.3l-0.8-0.6
	v-3L12.8,24C12.7,24.6,12.7,25.1,12.7,25.2L12.7,25.2L12.7,25.2z M14.9,24.8v1.8l-2-1.4v-0.1L14.9,24.8z M16.2,21.4
	c-0.1-0.1-0.3-0.2-0.4-0.2c-0.3,0-0.6,0-0.9,0.1v1.5h0.2c0-0.2,0-0.3,0-0.4c0.1-0.1,0.2-0.1,0.2-0.1c0.1,0,0.3,0.1,0.5,0.3l1.7,1.5
	c0.2,0.1,0.3,0.3,0.4,0.5c0.1,0.1,0.1,0.3,0,0.5l0.1,0.1c0.2-0.1,0.4-0.2,0.6-0.3c0.3-0.1,0.6-0.2,0.9-0.2l0.1-1.8h-0.2v0.7
	l-0.7,0.2l-2.4-2.1V21h1.1v-1.1h-1.3L16.2,21.4z M20.8,16.4c0-0.2,0-0.5-0.1-0.7c0-0.1-0.1-0.3-0.2-0.4c-0.1-0.1-0.2-0.2-0.3-0.2
	c-0.1,0-0.2,0-0.3,0.1c-0.1,0-0.1,0.1-0.1,0.2c0,0.1,0,0.2,0.1,0.3s0.3,0.1,0.4,0.1s0.2,0,0.2,0.1c0.1,0.1,0.1,0.2,0.1,0.3
	c0,0.2-0.1,0.3-0.3,0.4c-0.1,0.1-0.3,0.2-0.5,0.3c-0.4,0.2-0.7,0.3-1.1,0.5c0,0.3,0,0.6,0,0.8c-0.1,0.3-0.2,0.6-0.4,0.9l1.4,1.5
	l1.3-0.3l0.1,1.2v0.8c0,0.2,0,0.3,0,0.3c0,0.1,0,0.1,0,0.2c0.1,0.1,0.2,0.1,0.2,0s0.1-0.1,0.1-0.2c0-0.3,0.2-0.6,0.5-0.8
	c0.2-0.1,0.3-0.3,0.5-0.4s0.5-0.2,0.7-0.2c0-0.3,0.1-0.7,0.2-1s0.3-0.5,0.5-0.7l-1.5-1.7L20.9,18L20.8,16.4z M18.9,18.3
	c0.5,0,0.9-0.2,1.3-0.6c0.2-0.1,0.3-0.3,0.4-0.5l0.2,2L20,19.4L18.9,18.3z M21.9,18.9l1.1,1.2c-0.5,0.1-0.9,0.3-1.2,0.6
	c-0.1,0.1-0.2,0.2-0.2,0.3c-0.1,0.1-0.2,0.2-0.2,0.4L21,19.1L21.9,18.9z M21.9,13.7l0.2-0.1L22,12.2l-0.6,0.4L21.9,13.7z M21.9,15.6
	l0.6,0.1l1.8,2.4c0.3,0.4,0.5,0.6,0.7,0.7s0.4,0.1,0.8,0.1l0.4-1.5H26c0,0.1,0,0.2-0.1,0.3c0,0,0,0.1-0.1,0.1s-0.2,0-0.2,0
	c-0.1,0-0.2-0.2-0.4-0.4L23.4,15l0.1-0.6h-1.3L21.9,15.6z M24.3,13.9l0.4-0.3l1.7,2.6c0.1,0.2,0.2,0.3,0.2,0.5c0,0.1,0,0.3-0.1,0.4
	l0.1,0.1c0.5-0.2,1.1-0.2,1.6,0l0.5-1.5l-0.2-0.1L28.4,16h-0.8l-2-3.1l0.9-0.6l-0.3-0.5l-0.9,0.6l-0.8-1.3l-0.1,0.1l-0.2,2.4
	L24.3,13.9z M27.3,12.2C27.3,12.2,27.3,12.1,27.3,12.2c0-0.2,0.1-0.3,0.2-0.3s0.2,0,0.3,0c0.1,0.1,0.3,0.3,0.5,0.6l1.2,2.3
	c0.1,0.1,0.1,0.3,0.2,0.5c0,0.1,0,0.3,0,0.4c0,0.1,0,0.2-0.1,0.3c-0.1,0.3-0.1,0.6,0,0.9c0.1,0.2,0.4,0.4,0.6,0.5
	c0.3,0.1,0.6,0,1-0.2c0.3-0.2,0.6-0.4,0.7-0.7c0.1-0.2,0.1-0.3,0.1-0.4L31.9,16c-0.1,0-0.1,0-0.2,0l-0.1,0.1c0,0.1,0,0.2,0,0.3
	c0,0.1,0,0.2-0.1,0.3c-0.1,0.2-0.3,0.3-0.4,0.4c-0.2,0.1-0.5,0.2-0.8,0.1c-0.2,0-0.4-0.1-0.5-0.3c0-0.1-0.1-0.2-0.1-0.3
	c0-0.2,0.1-0.3,0.1-0.5c0-0.1,0.2-0.3,0.4-0.7c0.4-0.7,0.8-1.3,1.1-2c0.2-0.4,0.3-0.9,0.3-1.3c0-0.4-0.1-0.8-0.3-1.1
	c-0.3-0.6-0.9-1-1.6-1.3l-0.8,1.9v-0.1c-0.1-0.2-0.2-0.4-0.4-0.5c-0.2-0.1-0.4-0.2-0.8-0.2l-0.6,1.4L27.3,12.2z M29.5,10.8
	c0.6,0.2,1,0.6,1.2,1s0.3,0.8,0.2,1.2c0,0.5-0.1,1-0.4,1.5l-1.4-2.7L29.5,10.8z M36.1,7.1c-0.4,0.6-0.8,1-1.3,1.4l0.9,2.8
	c0.1,0.2,0.1,0.4,0.1,0.6c0,0.1-0.1,0.3-0.2,0.4l0.1,0.1c0.3-0.1,0.6-0.1,0.9-0.1c0.5,0,1,0.1,1.4,0.2c0.1-0.2,0.2-0.4,0.4-0.5
	c0.3-0.3,0.6-0.6,1-0.9l-1.2-3.9C37.5,7.3,36.8,7.2,36.1,7.1L36.1,7.1L36.1,7.1z M35.8,8.1c0.2,0,0.3,0,0.5,0s0.5,0,1,0.1l1,3.3
	l-1.5-0.1L35.8,8.1z M40.3,3.9c-0.3,0.4-0.6,0.8-1,1.2l0.3,1.3l-0.5,0.1l0.1,0.6L39.7,7l0.7,3.1c0,0.2,0,0.4,0,0.6
	c0,0.1-0.1,0.2-0.2,0.3l0.1,0.1c0.5,0,1.1,0.2,1.5,0.5l1-1.3l-0.2-0.1l-0.3,0.4l-0.7-0.3l-0.8-3.6l0.8-0.2l-0.1-0.6l-0.8,0.2
	l-0.3-1.3h1V3.9H40.3z M46.7,4.8C46.2,5.4,46,6.2,46,7c0,0.7,0.2,1.3,0.5,1.8c0.3,0.6,0.8,1.1,1.4,1.4c0.6,0.3,1.2,0.5,1.9,0.5
	c0.5,0,0.9-0.1,1.4-0.3c0.4-0.1,0.8-0.4,1.2-0.6c0.4-0.3,0.7-0.7,1-1.1l-0.2-0.2c-0.4,0.4-0.8,0.7-1.3,0.9c-0.4,0.2-0.9,0.3-1.4,0.3
	h-0.2l-0.2-6.2c0.8,0.4,1.4,0.6,2.1,0.6L53,3.2L52.9,3h-0.1c-0.4,0-0.7,0-1.1-0.1c-0.4-0.1-0.9-0.2-1.3-0.4l-2.3,2v2.4
	c0,0.5,0,0.9,0,1s-0.2,0.3-0.4,0.5c-0.5-0.6-0.8-1.3-0.8-2.1c0-0.6,0.2-1.2,0.5-1.8c0.3-0.5,0.7-0.9,1.2-1.2l-0.1-0.1
	C47.6,3.7,47,4.3,46.7,4.8L46.7,4.8L46.7,4.8z M50,9.7c-0.4,0-0.8-0.1-1.2-0.3S48.1,9,47.9,8.7C48.3,8.4,48.7,8,49,7.6
	c0.1-0.1,0.2-0.3,0.2-0.4c0-0.2,0-0.4,0-0.6V4.1l0.6-0.6L50,9.7z M55.8,5.8c-0.2,0.1-0.5,0.1-0.9,0.2l-0.5,3.1
	c0,0.2-0.1,0.5-0.2,0.7c0,0-0.1,0.1-0.2,0.2v0.1c0.3,0.1,0.6,0.2,0.9,0.4c0.3,0.2,0.6,0.3,0.8,0.5l1.9-1l-0.1-0.2l-0.9,0.4l-1.2-0.7
	l0.1-1l2.6-1.3l-1.3-2C56.4,5.6,56,5.7,55.8,5.8L55.8,5.8L55.8,5.8z M57.2,7.6l-1.6,0.8L56,5.9h0.1L57.2,7.6z M60.7,7.5V7.3
	c0.1-0.2,0.1-0.4,0-0.6c0-0.2-0.2-0.4-0.4-0.7L59,6.6l0.1,0.2c0.2-0.1,0.3-0.1,0.4-0.1c0.1,0,0.1,0.1,0.1,0.2c0,0.2,0,0.4-0.1,0.8
	l-0.7,2.7l-0.5,0.3l0.7,1l1.1-0.5l-0.3-0.5l0.8-2.9l1.1-0.5L62,7.9l-0.7,2.9c-0.1,0.4-0.1,0.7-0.1,0.8c0,0.2,0.2,0.4,0.4,0.7
	l1.4-0.6v-0.3c-0.2,0.1-0.4,0.1-0.4,0.1c-0.1,0-0.1-0.1-0.1-0.1c0-0.2,0-0.4,0-0.6l0.6-2.5c0-0.2,0.1-0.4,0.3-0.6s0.4-0.3,0.6-0.4
	l-0.1-0.2l-0.6,0.4l-0.5-1L60.7,7.5z M64.7,8.1l0.5,0.2l-1.1,2.9c-0.1,0.2-0.2,0.4-0.3,0.5s-0.2,0.2-0.4,0.2V12
	c0.4,0.3,0.8,0.8,1,1.3l1.5-0.5l-0.1-0.2l-0.4,0.1L65,12.1l1.3-3.4l1,0.4l0.2-0.6l-1-0.4L67,6.7h-0.1l-2.1,1.2L64.7,8.1z M69.4,10.2
	c0.1-0.1,0.1-0.3,0.1-0.5c-0.1-0.3-0.2-0.6-0.3-0.8l-1.4,0.4v0.2c0.2-0.1,0.3-0.1,0.4,0c0.1,0,0.1,0.1,0.1,0.2c0,0.1,0,0.3-0.2,0.5
	l-1,2c-0.1,0.2-0.2,0.4-0.3,0.6c-0.1,0.1-0.3,0.2-0.4,0.2v0.1c0.2,0.2,0.3,0.3,0.5,0.5c0.2,0.3,0.3,0.5,0.4,0.8L69,14v-0.2L68.3,14
	L68,13.4l1.4-2.9l0.7-0.2l0.2,1.1l1.1-0.3L71,9.8L69.4,10.2z M75.5,12.9c-0.1,0-0.1,0-0.2-0.1c-0.2-0.1-0.4-0.3-0.5-0.5
	c-0.2-0.2-0.4-0.5-0.5-0.8c-0.4,0.1-0.9,0.1-1.2-0.2c-0.1,0-0.1-0.1-0.3-0.2l-0.1,0.1l-0.2,1.5c-0.5,0.2-1,0.4-1.5,0.7
	c-0.3,0.2-0.5,0.4-0.7,0.7c-0.3,0.4-0.3,1,0,1.8l2.1-0.2c-0.1,0.2-0.2,0.4-0.2,0.7s0.1,0.5,0.2,0.8l1.5-0.2v-0.2c-0.2,0-0.3,0-0.3,0
	h-0.1c-0.1,0-0.1-0.1-0.1-0.2s0.1-0.3,0.3-0.7l1.2-2c0.1-0.2,0.2-0.4,0.4-0.5c0.2-0.2,0.4-0.3,0.7-0.4l-0.1-0.2
	C75.7,12.9,75.6,12.9,75.5,12.9z M73.3,14.2l-0.7-1.1l0.2-1.5l1.3,1.5L73.3,14.2z M72.5,15.5l-1,0.1c-0.2-0.6-0.2-1.2,0.1-1.7
	c0.2-0.3,0.5-0.6,0.9-0.8l0.8,1.2L72.5,15.5z M79.4,13c-0.3,0-0.6,0-0.9,0c0-0.4-0.1-0.7-0.4-1H78c0,0.2,0.1,0.4,0.1,0.6
	c0,0.1,0,0.3-0.1,0.4c-0.1,0.2-0.2,0.4-0.4,0.6l-2.3,3.1c-0.2,0.3-0.4,0.5-0.4,0.5c-0.1,0.1-0.2,0.1-0.3,0.2c-0.1,0-0.2,0-0.3,0
	l-0.1,0.1c0.1,0.2,0.3,0.4,0.4,0.6c0.1,0.3,0.2,0.6,0.2,0.9h1.4v-0.2h-0.3L75.5,18l2.9-3.9c0.3-0.4,0.5-0.6,0.7-0.7
	c0.3-0.1,0.5-0.1,0.8-0.1l0.1-0.1C79.9,13.1,79.6,13,79.4,13z M85.9,20.1l-0.8-0.2c0.2-0.2,0.4-0.4,0.5-0.7c0.1-0.2,0.1-0.5,0-0.8
	s-0.2-0.6-0.4-0.8c-0.2-0.2-0.4-0.4-0.7-0.5c-0.3-0.1-0.6-0.2-0.9-0.2v0.2c0.3,0.1,0.6,0.2,0.8,0.5c0.1,0.2,0.2,0.4,0.3,0.6
	c0,0.2,0,0.4-0.1,0.6s-0.3,0.4-0.5,0.6l-0.3,0.2L82.2,19c-0.2-0.1-0.5-0.2-0.7-0.3l-0.2,0.1c0.2,0.4,0.3,0.8,0.4,1.3
	c0,0.4,0,0.7-0.2,1c-0.2,0.4-0.5,0.7-0.8,0.9c-0.4-0.3-0.8-0.5-1.2-0.7c-0.4-0.1-1-0.2-1.7-0.2v0.3c0.4,0.1,0.8,0.2,1.2,0.4
	c0.4,0.2,0.8,0.5,1.1,0.9l-1.7,1.5l1.3,1.5l1.6-1.4c0.2,0.3,0.4,0.6,0.5,0.8c0.2,0.4,0.3,0.7,0.5,1.1l2.2,0.3l2.6-2.3
	c0.3-0.2,0.6-0.5,0.8-0.8c0.1-0.3,0.2-0.6,0.2-1s0-1.1-0.2-2l-1.7-0.5l0.7-0.6l-0.2-0.2L85.9,20.1z M86,20.4l0.8,0.2
	c0.1,0.5,0.2,1,0.2,1.5c0,0.3,0,0.6-0.1,0.9c-0.1,0.2-0.3,0.4-0.5,0.6c-0.3-0.1-0.5-0.2-0.8-0.3c-0.2-0.1-0.4-0.3-0.5-0.4
	c-0.1-0.2-0.3-0.4-0.3-0.6c-0.1-0.2-0.1-0.5-0.2-0.8L86,20.4z M79.7,25.5L79.2,25l5.7-4.9l0.8,0.2L79.7,25.5z M82.4,20.7
	c0-0.2,0-0.5,0-0.7s-0.1-0.5-0.1-0.7l1.4,0.4L82.4,20.7z M84.4,21.7c0,0.2,0.1,0.5,0.2,0.7s0.2,0.4,0.3,0.5c0.1,0.2,0.3,0.3,0.5,0.4
	s0.5,0.3,0.8,0.3l-1.3,1.1c0-0.3-0.1-0.5-0.2-0.8c-0.1-0.2-0.2-0.4-0.3-0.5c-0.1-0.2-0.3-0.3-0.5-0.4s-0.5-0.3-0.7-0.3L84.4,21.7z
	 M82.9,23c0.3,0.1,0.5,0.2,0.8,0.3c0.2,0.1,0.4,0.3,0.5,0.4c0.1,0.2,0.3,0.4,0.3,0.6c0.1,0.2,0.2,0.5,0.2,0.8l-1.4,1.2
	c-0.1-0.5-0.3-1-0.5-1.5c-0.2-0.4-0.4-0.7-0.7-1.1L82.9,23z M89.6,28.6l-0.2,0.5l-2.6,1.5l-1.1-0.5c0-0.2,0-0.4,0.1-0.5
	s0.2-0.2,0.4-0.3l2.5-1.4l0.5,0.2l0.2-1.3l-1.6-0.6l-0.1,0.2c0.1,0,0.2,0.1,0.3,0.2c0,0.1,0,0.2,0,0.3c0,0-0.1,0.1-0.2,0.1l-2.3,1.3
	c-0.2,0.1-0.5,0.3-0.6,0.6c-0.1,0.2-0.2,0.5-0.3,1c0.7,0.2,1.4,0.5,2,0.8c-0.3,0.2-0.5,0.4-0.6,0.5c-0.1,0.2-0.2,0.5-0.2,0.8
	l1.3,0.6l0.1-0.2c-0.1,0-0.2-0.1-0.3-0.2c0-0.1,0-0.2,0-0.2c0.1-0.2,0.3-0.3,0.5-0.5l2.5-1.4l0.6,0.2l0.2-1.2L89.6,28.6z M91.3,33.3
	l0.2-0.1c0.2-0.1,0.4-0.2,0.5-0.3s0.2-0.4,0.3-0.8L91,31.5l-0.1,0.2c0.2,0.1,0.3,0.2,0.3,0.2c0,0.1,0,0.2-0.1,0.2
	c-0.1,0.1-0.3,0.3-0.7,0.4l-2.6,1.1l-0.5-0.2L87,34.5l1.1,0.6l0.2-0.5l2.8-1.1l1,0.6l-0.3,0.6l-2.7,1.1c-0.4,0.1-0.6,0.3-0.7,0.4
	c-0.1,0.1-0.2,0.4-0.3,0.8l1.3,0.7l0.1-0.2c-0.2-0.1-0.3-0.2-0.3-0.2c0-0.1,0-0.1,0-0.2c0.1-0.1,0.3-0.2,0.4-0.3l2.4-1
	c0.2-0.1,0.4-0.1,0.7-0.1c0.2,0,0.5,0.1,0.7,0.2l0.1-0.2l-0.7-0.3l0.5-1L91.3,33.3z M95.2,38l0.1,0.2l1.3,0.4L96.4,38H95.2z
	 M93,37.1l0.4,0.4c-0.1,0.2-0.2,0.4-0.3,0.6c-0.3,0-0.6,0-0.9,0s-0.5,0.1-0.8,0.2c-0.5,0.2-1,0.4-1.5,0.7c-0.3,0.2-0.6,0.3-0.9,0.4
	c-0.3,0.1-0.6,0.1-0.9,0s-0.6-0.2-0.9-0.5L87,39c0.2,0.3,0.4,0.5,0.7,0.7c0.3,0.2,0.7,0.4,1,0.5c0.4,0.1,0.7,0,1.1-0.1
	c0.3-0.1,0.5-0.2,0.7-0.3c0.4-0.2,0.8-0.4,1.2-0.5c0.3-0.1,0.6-0.1,1-0.1c0.3,0,0.7,0.1,1,0.2c0.1-0.2,0.2-0.5,0.3-0.7
	c0.1-0.2,0.2-0.4,0.4-0.6L93,37.1L93,37.1z M95.3,43.8c0,0-0.1-0.1-0.1-0.2c0-0.2,0-0.5,0-0.7c0-0.3,0.1-0.6,0.2-0.9
	c-0.4-0.2-0.6-0.6-0.7-1c0-0.1,0-0.2,0-0.3h-0.2l-1.2,0.9c-0.5-0.3-1-0.5-1.5-0.7c-0.3-0.1-0.6-0.1-1,0c-0.5,0.1-0.9,0.5-1.3,1.2
	l1.6,1.4c-0.2,0-0.5,0.1-0.7,0.3s-0.4,0.4-0.5,0.7l1.2,0.9l0.1-0.2C91.1,45.1,91,45,91,45v-0.1c0-0.1,0-0.2,0.1-0.2
	c0.1-0.1,0.3-0.1,0.7-0.2l2.3-0.4c0.2,0,0.4-0.1,0.7,0c0.3,0,0.5,0.1,0.8,0.2v-0.2C95.5,43.9,95.4,43.8,95.3,43.8z M92.9,43l0.3-1.3
	l1.2-0.9l-0.2,1.9L92.9,43z M91.4,43.3l-0.8-0.7c0.3-0.6,0.7-1,1.3-1.1c0.4-0.1,0.8,0,1.2,0.1L92.7,43L91.4,43.3z M98,46.9
	c-0.2-0.3-0.4-0.5-0.6-0.8c0.1-0.1,0.2-0.2,0.2-0.3c0.1-0.2,0.2-0.4,0.2-0.6l-0.1-0.1c-0.1,0.2-0.3,0.4-0.5,0.5s-0.5,0.2-0.9,0.2
	L93.2,46c-0.8,0-1.3,0.1-1.5,0c-0.2,0-0.3-0.1-0.4-0.3h-0.1c-0.1,0.5-0.2,0.9-0.3,1.4c-0.1,0.3-0.3,0.7-0.5,1
	c0.2,0.2,0.4,0.4,0.5,0.6c0.2,0.3,0.4,0.7,0.6,1.1l3.3-0.2c0.3,0,0.6-0.1,0.9-0.2c0.2-0.2,0.5-0.4,0.6-0.7l-1.5-1.6l1.9-0.1
	c0.4,0,0.6,0,0.8,0.1c0.2,0.1,0.4,0.3,0.5,0.5h0.1C98.1,47.3,98.1,47.1,98,46.9L98,46.9z M94.5,47.1l0.8,0.9
	c-0.1,0.2-0.2,0.3-0.3,0.4c-0.2,0.1-0.4,0.1-0.6,0.1l-3.1,0.2l0.5-1.4L94.5,47.1z"/>
<path class="st0" d="M76.7,24.1C69.6,17,60,13,49.9,13s-19.6,4-26.8,11.1S12,40.8,12,50.9s4,19.7,11.1,26.8s16.7,11.1,26.8,11.1
	s19.6-3.9,26.8-11.1S87.8,61,87.8,50.9S83.9,31.3,76.7,24.1z M76.1,77.2c-7,7-16.3,10.9-26.2,10.9s-19.2-3.9-26.2-10.9
	S12.8,60.8,12.8,50.9s3.9-19.2,10.9-26.2S40,13.9,49.9,13.9s19.2,3.9,26.2,10.9S87,41,87,50.9S83.1,70.2,76.1,77.2z"/>
<polygon class="st1" points="49.4,26.7 50.5,26.8 50.5,26.9 "/>
<polygon class="st1" points="50.5,26.8 50.5,25.1 49.3,26.2 49.8,25.8 "/>
<path class="st0" d="M66.6,49.5l-1.8-1.1L64,49.3v-2.6l-1.8-1.1l-1,1.1v-2.5l-1.3-1.1L59.1,44v-2.4l-1.3-1.1l-2,2.1v7.6L50,54.3
	v-3.5h-0.4v3.5l-5.8-4.1v-7.6l-2-2.1l-1.3,1.1V44l-0.8-0.9l-1.3,1.1v2.5l-1-1.1l-1.8,1.1v2.6L35,48.4l-1.8,1.1V66l0,0l14.4,6.8l0,0
	h4.9L66.6,66V49.5z M64.4,49.6l0.2,0.2v15.1L50,71.6v-3.4L63.9,62V50.2L64.4,49.6z M61.8,46.8l0.5,0.3v13.8l-12.2,5.6v-2.4l11.1-5.8
	l0,0l0,0l0,0l0,0V47.5L61.8,46.8z M59.5,44.2l0.4,0.4v12.8L50,62.5v-2.7l9-5.4l0,0l0,0l0,0l0,0v-9.8L59.5,44.2z M57.1,51.1
	L57.1,51.1L57.1,51.1L57.1,51.1L57.1,51.1V42l0.4-0.4l0.4,0.4v11.5l-7.8,4.8v-2.5L57.1,51.1z M42.7,42v9.1l0,0l0,0l0,0l0,0l7,4.8
	v2.5l-7.8-4.8V42.1l0.4-0.4L42.7,42z M40.6,44.7v9.8l0,0l0,0l0,0l0,0l9,5.4v2.7l-9.9-5.1V44.7l0.4-0.4L40.6,44.7z M38.6,58.3
	L38.6,58.3L38.6,58.3L38.6,58.3L38.6,58.3l11.1,5.8v2.4l-12.2-5.6V47.2l0.5-0.3l0.7,0.7L38.6,58.3L38.6,58.3L38.6,58.3z M35.8,61.9
	L35.8,61.9l13.9,6.2v3.4l-14.6-6.7V49.7l0.2-0.2l0.5,0.5V61.9z"/>
<polygon class="st2" points="65.3,68.4 53.4,74.3 46.6,74.3 34.5,68.4 30.1,68.4 30.1,73.8 30.1,77.2 35.2,77.2 45.7,82.5 
	54.1,82.5 64.7,77.2 69.8,77.2 69.8,73.8 69.8,68.4 "/>
<path class="st3" d="M51.7,79.3l1.1,0.4c-0.2,0.6-0.5,1.1-0.9,1.4c-0.4,0.3-0.9,0.5-1.5,0.5c-0.8,0-1.4-0.3-1.9-0.8
	s-0.7-1.2-0.7-2.1c0-1,0.2-1.7,0.7-2.2s1.1-0.8,1.9-0.8c0.7,0,1.3,0.2,1.7,0.6c0.3,0.2,0.5,0.6,0.6,1.1l-1.1,0.3
	c-0.1-0.3-0.2-0.5-0.4-0.7c-0.2-0.2-0.5-0.3-0.8-0.3c-0.4,0-0.8,0.2-1,0.5S49,77.8,49,78.5c0,0.7,0.1,1.2,0.4,1.5s0.6,0.5,1,0.5
	c0.3,0,0.6-0.1,0.8-0.3C51.4,80,51.6,79.7,51.7,79.3z"/>
<path class="st2" d="M55.8,41.3v-9.2h1.3v7.7L55.8,41.3L55.8,41.3z M55.8,28.4l-0.9-0.7v19.8l0,0l-4.3,4.2h-1.3l-4.4-4.3V27.7
	L44,28.4v12.9l-1.3-1.5v-12l3.5-2.9V47l3.1,2.8v-6l-2.2-2.1V22.3h1.3v19l0.9,0.7V16.1h1.3V42l0.9-0.7v-19h1.3v19.4l-2.2,1.9v6
	l3.1-2.8v-22l3.5,3v3h-1.3L55.8,28.4L55.8,28.4z"/>
<path class="st3" d="M36,72h1.2v3.1c0,0.5,0,0.8,0,1c0,0.2,0.2,0.4,0.4,0.6s0.4,0.2,0.8,0.2c0.3,0,0.6-0.1,0.7-0.2s0.3-0.3,0.3-0.5
	s0.1-0.5,0.1-1V72h1.2v3c0,0.7,0,1.2-0.1,1.5s-0.2,0.5-0.3,0.7s-0.4,0.4-0.7,0.5s-0.6,0.2-1.1,0.2c-0.5,0-1-0.1-1.2-0.2
	s-0.5-0.3-0.7-0.5s-0.3-0.4-0.3-0.6C36.1,76.2,36,75.7,36,75V72z"/>
<path class="st3" d="M59.6,77.9v-5.7h1.9c0.7,0,1.2,0,1.4,0.1c0.3,0.1,0.6,0.3,0.8,0.6c0.2,0.3,0.3,0.7,0.3,1.1
	c0,0.4-0.1,0.6-0.2,0.9c-0.1,0.2-0.3,0.4-0.5,0.6c-0.2,0.1-0.4,0.2-0.6,0.3c-0.3,0.1-0.7,0.1-1.2,0.1h-0.8v2.2H59.6z M60.7,73.1v1.6
	h0.6c0.5,0,0.8,0,0.9-0.1c0.2-0.1,0.3-0.2,0.4-0.3c0.1-0.1,0.1-0.3,0.1-0.4c0-0.2-0.1-0.4-0.2-0.5c-0.1-0.1-0.3-0.2-0.5-0.3
	c-0.1,0-0.4,0-0.8,0H60.7z"/>
</svg>
